<svg width="1028" height="1028" viewBox="0 0 1028 1028" fill="none" xmlns="http://www.w3.org/2000/svg">
<path d="M1026 898H2" stroke="white" stroke-opacity="0.5" style="stroke:white;stroke-opacity:0.5;" stroke-width="4" stroke-miterlimit="10"/>
<path d="M1026 770H2" stroke="white" stroke-opacity="0.5" style="stroke:white;stroke-opacity:0.5;" stroke-width="4" stroke-miterlimit="10"/>
<path d="M1026 642H2" stroke="white" stroke-opacity="0.5" style="stroke:white;stroke-opacity:0.5;" stroke-width="4" stroke-miterlimit="10"/>
<path d="M1026 514H2" stroke="white" stroke-opacity="0.5" style="stroke:white;stroke-opacity:0.5;" stroke-width="4" stroke-miterlimit="10"/>
<path d="M1026 386H2" stroke="white" stroke-opacity="0.5" style="stroke:white;stroke-opacity:0.5;" stroke-width="4" stroke-miterlimit="10"/>
<path d="M1026 258H2" stroke="white" stroke-opacity="0.5" style="stroke:white;stroke-opacity:0.5;" stroke-width="4" stroke-miterlimit="10"/>
<path d="M1026 130H2" stroke="white" stroke-opacity="0.5" style="stroke:white;stroke-opacity:0.5;" stroke-width="4" stroke-miterlimit="10"/>
<path d="M898 1026V2" stroke="white" stroke-opacity="0.5" style="stroke:white;stroke-opacity:0.5;" stroke-width="4" stroke-miterlimit="10"/>
<path d="M770 1026V2" stroke="white" stroke-opacity="0.5" style="stroke:white;stroke-opacity:0.5;" stroke-width="4" stroke-miterlimit="10"/>
<path d="M642 1026V2" stroke="white" stroke-opacity="0.5" style="stroke:white;stroke-opacity:0.5;" stroke-width="4" stroke-miterlimit="10"/>
<path d="M514 1026V2" stroke="white" stroke-opacity="0.5" style="stroke:white;stroke-opacity:0.5;" stroke-width="4" stroke-miterlimit="10"/>
<path d="M386 1026V2" stroke="white" stroke-opacity="0.5" style="stroke:white;stroke-opacity:0.5;" stroke-width="4" stroke-miterlimit="10"/>
<path d="M258 1026V2" stroke="white" stroke-opacity="0.5" style="stroke:white;stroke-opacity:0.5;" stroke-width="4" stroke-miterlimit="10"/>
<path d="M130 1026V2" stroke="white" stroke-opacity="0.5" style="stroke:white;stroke-opacity:0.5;" stroke-width="4" stroke-miterlimit="10"/>
<path d="M1026 2L2 1026" stroke="white" stroke-opacity="0.5" style="stroke:white;stroke-opacity:0.5;" stroke-width="4" stroke-miterlimit="10"/>
<path d="M1026 1026L2 2" stroke="white" stroke-opacity="0.5" style="stroke:white;stroke-opacity:0.5;" stroke-width="4" stroke-miterlimit="10"/>
<path d="M514 924C740.437 924 924 740.437 924 514C924 287.563 740.437 104 514 104C287.563 104 104 287.563 104 514C104 740.437 287.563 924 514 924Z" stroke="white" stroke-opacity="0.5" style="stroke:white;stroke-opacity:0.5;" stroke-width="4" stroke-miterlimit="10"/>
<path d="M514 770C655.385 770 770 655.385 770 514C770 372.615 655.385 258 514 258C372.615 258 258 372.615 258 514C258 655.385 372.615 770 514 770Z" stroke="white" stroke-opacity="0.5" style="stroke:white;stroke-opacity:0.5;" stroke-width="4" stroke-miterlimit="10"/>
<path d="M514 616C570.333 616 616 570.333 616 514C616 457.667 570.333 412 514 412C457.667 412 412 457.667 412 514C412 570.333 457.667 616 514 616Z" stroke="white" stroke-opacity="0.5" style="stroke:white;stroke-opacity:0.5;" stroke-width="4" stroke-miterlimit="10"/>
</svg>
